<svg width="647" height="124" xmlns="http://www.w3.org/2000/svg">

 <g>
  <title>Layer 1</title>
  <g stroke="null">
   <path stroke="null" d="m51.07643,16.27429l40.67734,23.57437l0,0.09245l-7.53455,4.34508l0,-0.09245l-33.14279,-19.18307l0,-8.73638zm33.18902,66.33181l7.53455,4.34508l0,0.09245l-40.67734,23.52815l0,0l-7.53455,-4.34508l7.53455,-4.34508l0,0l33.14279,-19.18307l0,-0.09245z" fill="#307AF2"/>
   <path stroke="null" d="m18.53455,82.6061l0,0.09245l19.27551,11.14005l-7.53455,4.34508l-19.27551,-11.14005l0,-0.09245l7.53455,-4.34508z" fill="#12D2AC"/>
   <path stroke="null" d="m59.11945,59.26285l-40.76979,23.48192l-0.09245,-0.04622l0,-8.69016l0.09245,0.04622l33.18902,-19.13684l7.58078,4.34508z" fill="#12D2AC"/>
   <path stroke="null" d="m51.72357,16.27429l-40.67734,23.57437l0,0.09245l7.53455,4.34508l0,-0.09245l33.14279,-19.18307l0,-8.73638z" fill="#0057FE"/>
   <path stroke="null" d="m11.04622,39.80244l0.04622,47.01007l0.09245,0.04622l7.53455,-4.34508l-0.09245,-0.04622l-0.04622,-38.31991l-7.53455,-4.34508z" fill="#307AF2"/>
   <path stroke="null" d="m91.75377,39.80244l-0.04622,47.01007l-0.09245,0.04622l-7.53455,-4.34508l0.09245,-0.04622l0.04622,-38.31991l7.53455,-4.34508z" fill="#0057FE"/>
   <path stroke="null" d="m30.27551,89.53973l7.44211,4.34508l46.5016,-27.13364l0,-8.69016l-53.94371,31.47872z" fill="#12D2AC"/>
  </g>
  <text stroke="#000" font-weight="bold" xml:space="preserve" text-anchor="start" font-family="Noto Sans JP" font-size="65" id="svg_1" y="90.87422" x="104.74601" stroke-width="0" fill="#000000">ContiNew Admin</text>
 </g>
</svg>